<svg xmlns="http://www.w3.org/2000/svg" aria-hidden="true" style="position:absolute;width:0;height:0;overflow:hidden"><defs><symbol id="icon-arrow-down" viewBox="0 0 32 32"><path fill="none" stroke="#8baa36" stroke-linecap="round" stroke-linejoin="round" stroke-width="3.2" d="m8 12 8 8 8-8" style="stroke:var(--color1, #8baa36)"/></symbol><symbol id="icon-arrow-right-black" viewBox="0 0 32 32"><path fill="none" stroke="#3e4462" stroke-linecap="round" stroke-linejoin="round" stroke-width="2.667" d="M5.333 16h21.333m.001 0-8-8m8 8-8 8" style="stroke:var(--color2, #3e4462)"/></symbol><symbol id="icon-arrow-right-white" viewBox="0 0 30 32"><path fill="none" stroke="#fafafa" stroke-linecap="round" stroke-linejoin="round" stroke-width="2.189" d="M4.632 16h16.842M15.158 7.158 24 16l-8.842 8.842" style="stroke:var(--color3, #fafafa)"/></symbol><symbol id="icon-arrow-up" viewBox="0 0 32 32"><path fill="none" stroke="#8baa36" stroke-linecap="round" stroke-linejoin="round" stroke-width="3.2" d="m8 20 8-8 8 8" style="stroke:var(--color1, #8baa36)"/></symbol><symbol id="icon-checkbox" viewBox="0 0 32 32"><path fill="none" stroke="#7e7e7e" stroke-width="1.73" d="M4.324.865h23.351a3.459 3.459 0 0 1 3.459 3.459v23.351a3.459 3.459 0 0 1-3.459 3.459H4.324a3.459 3.459 0 0 1-3.459-3.459V4.324A3.459 3.459 0 0 1 4.324.865z" style="stroke:var(--color4, #7e7e7e)"/><path fill="#8baa36" d="M20.664 9.294a1.47 1.47 0 1 1 2.434 1.65l-7.974 11.762a1.47 1.47 0 0 1-2.434 0l-3.788-5.587a1.47 1.47 0 1 1 2.434-1.65l2.571 3.792 6.757-9.967z" style="fill:var(--color1, #8baa36)"/></symbol><symbol id="icon-close" viewBox="0 0 32 32"><path stroke-linecap="round" stroke-linejoin="round" stroke-width="2.667" d="M25 7 7 25M25 25 7 7"/></symbol><symbol id="icon-facebook" viewBox="0 0 30 32"><path fill="#8baa36" d="M30.476 16.092c0-8.466-6.823-15.33-15.238-15.33S0 7.626 0 16.092c0 7.651 5.571 13.994 12.857 15.145V20.525h-3.87v-4.433h3.87v-3.377c0-3.841 2.276-5.965 5.756-5.965 1.667 0 3.412.3 3.412.3v3.773h-1.922c-1.892 0-2.484 1.181-2.484 2.395v2.874h4.226l-.675 4.433h-3.55v10.713c7.286-1.15 12.857-7.493 12.857-15.146z" style="fill:var(--color1, #8baa36)"/></symbol><symbol id="icon-foto" viewBox="0 0 32 32"><path fill="none" stroke="#c4c4c4" stroke-linecap="round" stroke-linejoin="round" stroke-width=".762" d="M28.19 11.429V6.848A3.05 3.05 0 0 0 25.152 3.8l-4.581-.014m7.619 16.785v4.571a3.047 3.047 0 0 1-3.048 3.048h-4.571M11.429 3.787l-4.581.015A3.045 3.045 0 0 0 3.81 6.85v4.579m7.619 16.761H6.858a3.047 3.047 0 0 1-3.048-3.048v-4.571" style="stroke:var(--color5, #c4c4c4)"/><path fill="#c4c4c4" d="M15.905 18.75c.625 0 1.156-.219 1.594-.656s.656-.969.656-1.594-.219-1.156-.656-1.594c-.438-.437-.969-.656-1.594-.656s-1.156.219-1.594.656c-.437.438-.656.969-.656 1.594s.219 1.156.656 1.594c.438.437.969.656 1.594.656zm-4 1.75c-.275 0-.51-.098-.706-.294s-.294-.431-.294-.706v-6c0-.275.098-.51.294-.706s.431-.294.706-.294h1.575l.925-1h3l.925 1h1.575c.275 0 .511.098.706.294s.294.431.294.706v6c0 .275-.098.511-.294.706s-.431.294-.706.294h-8z" style="fill:var(--color5, #c4c4c4)"/></symbol><symbol id="icon-ingredients-minus" viewBox="0 0 32 32"><path stroke-linecap="round" stroke-linejoin="round" stroke-width="3" d="M5 16h22"/></symbol><symbol id="icon-ingredients-plus" viewBox="0 0 32 32"><path fill="none" stroke="#8baa36" stroke-linecap="round" stroke-linejoin="round" stroke-width="3" d="M5 16h22M16 5v22" style="stroke:var(--color1, #8baa36)"/></symbol><symbol id="icon-input-envelope" viewBox="0 0 31 32"><path fill="none" stroke="#fafafa" stroke-linecap="round" stroke-linejoin="round" stroke-width="2.56" d="m2.56 9.6 10.451 7.316c.846.593 1.27.889 1.73 1.003.407.101.832.101 1.238 0 .46-.115.883-.411 1.73-1.003L28.16 9.6M8.704 26.24h13.312c2.151 0 3.226 0 4.047-.419a3.838 3.838 0 0 0 1.678-1.678c.419-.822.419-1.897.419-4.047v-8.192c0-2.151 0-3.226-.419-4.047a3.838 3.838 0 0 0-1.678-1.678c-.822-.419-1.897-.419-4.047-.419H8.704c-2.151 0-3.226 0-4.047.419a3.838 3.838 0 0 0-1.678 1.678c-.419.821-.419 1.897-.419 4.047v8.192c0 2.151 0 3.226.419 4.047.368.723.956 1.31 1.678 1.678.821.419 1.897.419 4.047.419z" opacity=".8" style="stroke:var(--color3, #fafafa)"/></symbol><symbol id="icon-input-err" viewBox="0 0 32 32"><path fill="#e74a3b" d="M0 16C0 7.162 7.162 0 16 0s16 7.162 16 16c0 8.837-7.163 16-16 16S0 24.837 0 16zm10.938-2.994 2.944 2.938-2.944 2.994c-.581.588-.581 1.538 0 2.069.588.637 1.537.637 2.069 0l2.938-2.888 2.994 2.888c.588.637 1.538.637 2.069 0 .637-.531.637-1.481 0-2.069l-2.888-2.994 2.888-2.938c.637-.531.637-1.481 0-2.069-.531-.581-1.481-.581-2.069 0l-2.994 2.944-2.938-2.944c-.531-.581-1.481-.581-2.069 0-.581.588-.581 1.537 0 2.069z" style="fill:var(--color6, #e74a3b)"/></symbol><symbol id="icon-input-ok" viewBox="0 0 32 32"><path fill="#3cbc81" d="M0 16C0 7.162 7.162 0 16 0s16 7.162 16 16c0 8.837-7.163 16-16 16S0 24.837 0 16zm23.237-2.762c.681-.681.681-1.794 0-2.475s-1.794-.681-2.475 0l-6.763 6.762-2.763-2.762c-.681-.681-1.794-.681-2.475 0s-.681 1.794 0 2.475l4 4a1.755 1.755 0 0 0 2.475 0l8-8z" style="fill:var(--color7, #3cbc81)"/></symbol><symbol id="icon-input-padlock" viewBox="0 0 31 32"><path fill="none" stroke="#fff" stroke-linecap="round" stroke-linejoin="round" stroke-width="2.56" d="M21.76 14.72v-3.84c0-3.535-2.865-6.4-6.4-6.4s-6.4 2.865-6.4 6.4v3.84m1.024 12.8h10.752c2.151 0 3.226 0 4.047-.419a3.838 3.838 0 0 0 1.678-1.678c.419-.822.419-1.897.419-4.047v-.512c0-2.151 0-3.226-.419-4.047a3.838 3.838 0 0 0-1.678-1.678c-.822-.419-1.897-.419-4.047-.419H9.984c-2.151 0-3.226 0-4.047.419a3.838 3.838 0 0 0-1.678 1.678c-.419.822-.419 1.897-.419 4.047v.512c0 2.151 0 3.226.419 4.047.368.723.956 1.31 1.678 1.678.821.419 1.897.419 4.047.419z" opacity=".8" style="stroke:var(--color8, #fff)"/></symbol><symbol id="icon-input-user" viewBox="0 0 31 32"><path fill="none" stroke="#fff" stroke-linecap="round" stroke-linejoin="round" stroke-width="2.56" d="M25.6 27.52c0-1.786 0-2.679-.22-3.406a5.12 5.12 0 0 0-3.413-3.413c-.727-.22-1.62-.22-3.406-.22h-6.4c-1.786 0-2.679 0-3.406.22a5.12 5.12 0 0 0-3.413 3.413c-.22.727-.22 1.62-.22 3.406M21.12 10.24a5.76 5.76 0 1 1-11.52 0 5.76 5.76 0 0 1 11.52 0z" style="stroke:var(--color8, #fff)"/></symbol><symbol id="icon-input-warning" viewBox="0 0 32 32"><path fill="#f6c23e" d="M16 0C7.162 0 0 7.162 0 16s7.162 16 16 16c8.837 0 16-7.163 16-16S24.837 0 16 0zm-1.5 9.5c0-.825.675-1.5 1.5-1.5s1.5.672 1.5 1.5v8a1.5 1.5 0 0 1-3 0v-8zM16 25a1.965 1.965 0 1 1 0-3.93A1.965 1.965 0 0 1 16 25z" style="fill:var(--color9, #f6c23e)"/></symbol><symbol id="icon-instagram" viewBox="0 0 30 32"><path fill="#8baa36" d="M21.587 3.301a6.368 6.368 0 0 1 6.349 6.349v12.698a6.368 6.368 0 0 1-6.349 6.349H8.889a6.37 6.37 0 0 1-6.349-6.349V9.65a6.37 6.37 0 0 1 6.349-6.349h12.698zm0-2.539H8.889C4 .762 0 4.762 0 9.651v12.698c0 4.889 4 8.889 8.889 8.889h12.698c4.889 0 8.889-4 8.889-8.889V9.651c0-4.889-4-8.889-8.889-8.889z" style="fill:var(--color1, #8baa36)"/><path fill="#8baa36" d="M23.492 9.654a1.905 1.905 0 1 1 .003-3.812 1.905 1.905 0 0 1-.004 3.813zm-8.254 1.269a5.079 5.079 0 1 1 .003 10.156 5.079 5.079 0 0 1-.004-10.155zm0-2.54a7.62 7.62 0 0 0-7.473 9.105 7.624 7.624 0 0 0 5.986 5.986 7.616 7.616 0 0 0 7.821-3.24 7.62 7.62 0 0 0-6.335-11.853z" style="fill:var(--color1, #8baa36)"/></symbol><symbol id="icon-trash" viewBox="0 0 32 32"><path stroke-linecap="round" stroke-linejoin="round" stroke-width="2.667" d="M21.333 8V6.933c0-1.493 0-2.24-.291-2.811a2.666 2.666 0 0 0-1.165-1.165c-.57-.291-1.317-.291-2.811-.291h-2.133c-1.493 0-2.24 0-2.811.291-.502.256-.91.664-1.165 1.165-.291.57-.291 1.317-.291 2.811V8m2.667 7.333V22m5.334-6.667V22M4 8h24m-2.667 0v14.933c0 2.24 0 3.36-.436 4.216a3.991 3.991 0 0 1-1.748 1.748c-.856.436-1.976.436-4.216.436h-5.867c-2.24 0-3.36 0-4.216-.436a3.991 3.991 0 0 1-1.748-1.748c-.436-.856-.436-1.976-.436-4.216V8"/></symbol><symbol id="icon-search" viewBox="0 0 32 32"><path stroke-linecap="round" stroke-linejoin="round" stroke-width="2.667" d="M14.667 25.333c5.891 0 10.667-4.776 10.667-10.667S20.558 3.999 14.667 3.999 4 8.775 4 14.666s4.776 10.667 10.667 10.667zM28.001 28l-5.8-5.8"/></symbol><symbol id="icon-pencil" viewBox="0 0 32 32"><path stroke-linecap="round" stroke-linejoin="round" stroke-width="2.447" d="M2.355 25.551c.086-.778.13-1.168.247-1.531a3.73 3.73 0 0 1 .439-.913c.211-.319.487-.596 1.041-1.15L23.451 2.588a4.215 4.215 0 0 1 5.961 5.961L10.043 27.918c-.554.554-.831.831-1.15 1.041-.283.187-.59.334-.913.439-.364.118-.753.161-1.531.248l-4.606.512.512-4.606z"/></symbol><symbol id="icon-plus" viewBox="0 0 32 32"><path fill="#8baa36" d="M32 16c0 8.837-7.163 16-16 16S0 24.837 0 16 7.163 0 16 0s16 7.163 16 16z" style="fill:var(--color1, #8baa36)"/><path fill="none" stroke="#fafafa" stroke-linecap="round" stroke-linejoin="round" stroke-width="2.667" d="M16 9v14M9 16h14" style="stroke:var(--color3, #fafafa)"/></symbol><symbol id="icon-twitter" viewBox="0 0 38 32"><path fill="#8baa36" d="M37.647 4.51a15.806 15.806 0 0 1-4.435 1.2 7.647 7.647 0 0 0 3.398-4.204 15.506 15.506 0 0 1-4.907 1.843 7.771 7.771 0 0 0-5.64-2.407c-4.268 0-7.722 3.404-7.722 7.6a7.321 7.321 0 0 0 .199 1.733A22.004 22.004 0 0 1 2.619 2.33a7.496 7.496 0 0 0-1.05 3.82c0 2.635 1.375 4.965 3.451 6.329a7.646 7.646 0 0 1-3.512-.949v.094c0 3.686 2.667 6.753 6.196 7.451a7.899 7.899 0 0 1-2.034.267 7.452 7.452 0 0 1-1.452-.141c.981 3.019 3.837 5.216 7.22 5.278a15.659 15.659 0 0 1-9.594 3.255 15.992 15.992 0 0 1-1.843-.11 21.854 21.854 0 0 0 11.823 3.435c14.224 0 21.995-11.584 21.995-21.631 0-.329-.008-.659-.024-.98a15.57 15.57 0 0 0 3.853-3.937z" style="fill:var(--color1, #8baa36)"/></symbol><symbol id="icon-youtube" viewBox="0 0 43 32"><path fill="#8baa36" d="M42.393 7.066c0-3.75-2.759-6.766-6.167-6.766C31.609.084 26.9.001 22.088.001h-1.5c-4.801 0-9.518.083-14.135.3-3.4 0-6.159 3.033-6.159 6.783a124.152 124.152 0 0 0-.292 8.899c-.008 2.967.086 5.936.283 8.908 0 3.75 2.759 6.791 6.159 6.791 4.851.225 9.826.325 14.885.317 5.067.017 10.029-.089 14.885-.317 3.409 0 6.167-3.042 6.167-6.791.2-2.975.292-5.942.284-8.916.019-2.967-.072-5.936-.272-8.908zm-25.14 17.091V7.782l12.085 8.183-12.085 8.191z" style="fill:var(--color1, #8baa36)"/></symbol><symbol id="icon-logo" viewBox="0 0 32 32">
<path fill="none" stroke="#fafafa" style="stroke: var(--color1, #fafafa)" stroke-linejoin="round" stroke-linecap="round" stroke-miterlimit="4" stroke-width="2.1818" d="M3.201 3.309v5.817M3.201 9.126v0.117M3.201 9.126c0 1.661 0.725 3.132 1.848 4.083 0.549 0.465 0.912 1.094 0.912 1.791v9.71c0 1.079 0.928 1.956 2.071 1.956s2.071-0.876 2.071-1.956v-9.71c0-0.697 0.363-1.326 0.912-1.791 1.124-0.952 1.848-2.422 1.848-4.083v-5.817"></path>
<path fill="none" stroke="#fafafa" style="stroke: var(--color1, #fafafa)" stroke-linejoin="round" stroke-linecap="round" stroke-miterlimit="4" stroke-width="2.1818" d="M8.031 9.718v-6.519"></path>
<path fill="none" stroke="#fafafa" style="stroke: var(--color1, #fafafa)" stroke-linejoin="round" stroke-linecap="round" stroke-miterlimit="4" stroke-width="2.1818" d="M26.667 4.571c0-0.72-0.618-1.304-1.38-1.304h-1.38c-2.287 0-4.141 1.751-4.141 3.911v7.822c0 1.7 1.155 3.133 2.761 3.671v6.039c0 1.079 0.928 1.956 2.071 1.956s2.071-0.876 2.071-1.956v-20.14z"></path>
</symbol></defs></svg>